<svg xmlns="http://www.w3.org/2000/svg" viewBox="0 0 438.97 72.48"><defs><style>.cls-1{fill:#231815;}</style></defs><title>アセット 1</title><g id="レイヤー_2" data-name="レイヤー 2"><g id="レイヤー_1-2" data-name="レイヤー 1"><path class="cls-1" d="M37.93,11.55C34.56,3.89,29.14,0,21.78,0,11.86,0,4.5,7.46,4.5,17.48c0,8.39,3.68,12.78,16.05,19.33,10.74,5.72,13.6,9,13.6,15.64,0,7.67-5.52,13.3-13.09,13.3-5.88,0-10.46-3-13.39-8.61H.24L0,57.26c3.89,9.82,11.45,15.13,21.27,15.13C33,72.39,41.41,64,41.41,52.25a18.18,18.18,0,0,0-6.24-14.32c-2.66-2.45-5.52-4.19-11.35-7.16C14.42,26,11.76,22.6,11.76,17A10.06,10.06,0,0,1,21.88,6.65c3.77,0,6.46,1.53,8.68,5h7.15Z"/><polygon class="cls-1" points="142.15 31.48 126.56 0.3 118.34 0.3 138.52 39.7 138.52 72.48 145.78 72.48 145.78 39.7 165.97 0.3 157.74 0.3 142.15 31.48"/><path class="cls-1" d="M293.24,72.48H301L271.07.24,241.28,72.48H249l22-55.41Z"/><polygon class="cls-1" points="431.71 0.3 431.71 53.81 380.14 0.3 380.14 72.48 387.4 72.48 387.4 18.68 438.97 72.48 438.97 0.3 431.71 0.3"/></g></g></svg>