<svg xmlns="http://www.w3.org/2000/svg" width="16.207" height="15.939" viewBox="0 0 16.207 15.939">
  <g id="グループ化_581" data-name="グループ化 581" transform="translate(-255.565 -348.489)">
    <path id="パス_17" data-name="パス 17" d="M276.178,363.7l-2.106,3.153,3.863,5.785c.523-.713,1.04-2.349.049-5.158A31.012,31.012,0,0,0,276.178,363.7Z" transform="translate(-9.99 -8.21)" fill="#FFF"/>
    <path id="パス_18" data-name="パス 18" d="M274.511,349.01a2.255,2.255,0,0,0-1.372-.521c-.863,0-1.787.613-2.74,2.08,0,0-1.456,2.281-2.347,3.681l-2.794.665a30.25,30.25,0,0,0-2.148,4.355c-.991,2.809-.475,4.445.048,5.158l6.876-10.294a6.464,6.464,0,0,0,2.286.6,2.815,2.815,0,0,0,2.447-1.471C275.925,351.477,275.736,349.946,274.511,349.01Zm-7.608,7.528a.584.584,0,1,1,.614-.553A.581.581,0,0,1,266.9,356.538Zm6.738-4.2a1.5,1.5,0,0,1-1.233.847,1.46,1.46,0,0,1-.708-.211c-.434-.173-.706-.713.018-1.83.434-.669.89-.976,1.307-.976a.917.917,0,0,1,.562.2C274.127,350.781,274.152,351.548,273.641,352.335Z" transform="translate(-3.769)" fill="#FFF"/>
    <path id="パス_19" data-name="パス 19" d="M260.705,350.57c-1.48-2.28-2.889-2.5-4.112-1.559s-1.414,2.467-.255,4.254c1.546,2.377,3.712,1.251,4.733.869l.116.174a.706.706,0,0,1,.142-.064l1.493-.355C261.931,352.491,260.705,350.57,260.705,350.57Zm-1.3,2.4c-.429.241-1.2.506-1.941-.636-.512-.788-.487-1.554.053-1.967s1.229-.215,1.87.773C260.111,352.258,259.839,352.8,259.405,352.972Z" transform="translate(0 0)" fill="#FFF"/>
  </g>
</svg>
